{
  "accessors": [
    {
      "bufferView": 2,
      "componentType": 5126,
      "count": 65532,
      "max": [
        2.7554469108581543,
        12.919824600219727,
        4.4395108222961426
      ],
      "min": [
        -5.2770581245422363,
        10.729367256164551,
        -3.6872730255126953
      ],
      "type": "VEC3"
    },
    {
      "bufferView": 2,
      "byteOffset": 786384,
      "componentType": 5126,
      "count": 65532,
      "max": [
        0.99972552061080933,
        0.99999755620956421,
        0.99977320432662964
      ],
      "min": [
        -0.9963192343711853,
        -0.99997985363006592,
        -0.99999493360519409
      ],
      "type": "VEC3"
    },
    {
      "bufferView": 1,
      "componentType": 5126,
      "count": 65532,
      "max": [
        0.99776500463485718,
        0.99927002191543579
      ],
      "min": [
        0.0035920001100748777,
        0.00046300000394694507
      ],
      "type": "VEC2"
    },
    {
      "bufferView": 0,
      "componentType": 5125,
      "count": 348774,
      "max": [
        65531
      ],
      "min": [
        0
      ],
      "type": "SCALAR"
    },
    {
      "bufferView": 2,
      "byteOffset": 1572768,
      "componentType": 5126,
      "count": 65532,
      "max": [
        1.9139900207519531,
        12.678482055664062,
        4.9676871299743652
      ],
      "min": [
        -5.7033119201660156,
        10.687169075012207,
        -3.533379077911377
      ],
      "type": "VEC3"
    },
    {
      "bufferView": 2,
      "byteOffset": 2359152,
      "componentType": 5126,
      "count": 65532,
      "max": [
        0.99999183416366577,
        0.99999755620956421,
        0.99991875886917114
      ],
      "min": [
        -0.9999690055847168,
        -0.99999570846557617,
        -0.99990910291671753
      ],
      "type": "VEC3"
    },
    {
      "bufferView": 1,
      "byteOffset": 524256,
      "componentType": 5126,
      "count": 65532,
      "max": [
        0.99898499250411987,
        0.99928098917007446
      ],
      "min": [
        0.0054870001040399075,
        0.0016550000291317701
      ],
      "type": "VEC2"
    },
    {
      "bufferView": 0,
      "byteOffset": 1395096,
      "componentType": 5125,
      "count": 317484,
      "max": [
        65531
      ],
      "min": [
        0
      ],
      "type": "SCALAR"
    },
    {
      "bufferView": 2,
      "byteOffset": 3145536,
      "componentType": 5126,
      "count": 8012,
      "max": [
        -3.4546289443969727,
        11.831564903259277,
        4.0935168266296387
      ],
      "min": [
        -5.7033119201660156,
        10.689909934997559,
        1.757267951965332
      ],
      "type": "VEC3"
    },
    {
      "bufferView": 2,
      "byteOffset": 3241680,
      "componentType": 5126,
      "count": 8012,
      "max": [
        0.99859464168548584,
        0.99995517730712891,
        0.9984707236289978
      ],
      "min": [
        -0.99926728010177612,
        -0.99995923042297363,
        -0.99534839391708374
      ],
      "type": "VEC3"
    },
    {
      "bufferView": 1,
      "byteOffset": 1048512,
      "componentType": 5126,
      "count": 8012,
      "max": [
        0.97612202167510986,
        0.9995189905166626
      ],
      "min": [
        0.0038709999062120914,
        0.0036430000327527523
      ],
      "type": "VEC2"
    },
    {
      "bufferView": 0,
      "byteOffset": 2665032,
      "componentType": 5125,
      "count": 29088,
      "max": [
        8011
      ],
      "min": [
        0
      ],
      "type": "SCALAR"
    }
  ],
  "asset": {
    "extras": {
      "author": "Limerick3D (https://sketchfab.com/Limerick3D)",
      "license": "CC0-1.0 (http://creativecommons.org/publicdomain/zero/1.0/)",
      "source": "https://sketchfab.com/3d-models/hunt-museum-the-antrim-cross-hca-627-f67e05a1fdb841618c97178aff1c1e55",
      "title": "Hunt Museum - The Antrim Cross - HCA 627"
    },
    "generator": "Sketchfab-7.80.0",
    "version": "2.0"
  },
  "bufferViews": [
    {
      "buffer": 0,
      "byteLength": 2781384,
      "byteOffset": 0,
      "name": "floatBufferViews",
      "target": 34963
    },
    {
      "buffer": 0,
      "byteLength": 1112608,
      "byteOffset": 2781384,
      "byteStride": 8,
      "name": "floatBufferViews",
      "target": 34962
    },
    {
      "buffer": 0,
      "byteLength": 3337824,
      "byteOffset": 3893992,
      "byteStride": 12,
      "name": "floatBufferViews",
      "target": 34962
    }
  ],
  "buffers": [
    {
      "byteLength": 7231816,
      "uri": "scene.bin"
    }
  ],
  "images": [
    {
      "uri": "textures/HCA_267_baseColor.jpeg"
    }
  ],
  "materials": [
    {
      "doubleSided": true,
      "name": "HCA_267",
      "pbrMetallicRoughness": {
        "baseColorFactor": [
          1,
          1,
          1,
          1
        ],
        "baseColorTexture": {
          "index": 0,
          "texCoord": 0
        },
        "metallicFactor": 0,
        "roughnessFactor": 0
      }
    }
  ],
  "meshes": [
    {
      "primitives": [
        {
          "attributes": {
            "NORMAL": 1,
            "POSITION": 0,
            "TEXCOORD_0": 2
          },
          "indices": 3,
          "material": 0,
          "mode": 4
        }
      ]
    },
    {
      "primitives": [
        {
          "attributes": {
            "NORMAL": 5,
            "POSITION": 4,
            "TEXCOORD_0": 6
          },
          "indices": 7,
          "material": 0,
          "mode": 4
        }
      ]
    },
    {
      "primitives": [
        {
          "attributes": {
            "NORMAL": 9,
            "POSITION": 8,
            "TEXCOORD_0": 10
          },
          "indices": 11,
          "material": 0,
          "mode": 4
        }
      ]
    }
  ],
  "nodes": [
    {
      "children": [
        1
      ],
      "name": "RootNode (gltf orientation matrix)",
      "rotation": [
        -0.70710678118654746,
        -0,
        -0,
        0.70710678118654757
      ]
    },
    {
      "children": [
        2
      ],
      "matrix": [
        0.79811596870422363,
        0.10449668020009995,
        0.5933728814125061,
        0,
        -0.13856542110443115,
        0.99028080701828003,
        0.011982723139226437,
        0,
        -0.586353600025177,
        -0.091784566640853882,
        0.80483853816986084,
        0,
        1.7133777141571045,
        0.32750111818313599,
        0.85809004306793213,
        1
      ],
      "name": "RootNode (model correction matrix)"
    },
    {
      "children": [
        3,
        4,
        5
      ],
      "name": "HCA_267.obj.cleaner.materialmerger.gles"
    },
    {
      "mesh": 0,
      "name": ""
    },
    {
      "mesh": 1,
      "name": ""
    },
    {
      "mesh": 2,
      "name": ""
    }
  ],
  "samplers": [
    {
      "magFilter": 9729,
      "minFilter": 9987,
      "wrapS": 10497,
      "wrapT": 10497
    }
  ],
  "scene": 0,
  "scenes": [
    {
      "name": "OSG_Scene",
      "nodes": [
        0
      ]
    }
  ],
  "textures": [
    {
      "sampler": 0,
      "source": 0
    }
  ]
}

